<?xml version="1.0" encoding="utf-8"?>
<svg version="1.1" xmlns="http://www.w3.org/2000/svg" xmlns:xlink="http://www.w3.org/1999/xlink" x="0px" y="0px"
     viewBox="0 0 595.28 841.89" style="enable-background:new 0 0 595.28 841.89;" xml:space="preserve">
    <style type="text/css">
        .st0{stroke:#000000;stroke-miterlimit:10;}
        .st1{fill:none;stroke:#000000;stroke-width:3;stroke-miterlimit:10;}
        .st2{fill:none;stroke:#000000;stroke-miterlimit:10;}
        .st3{stroke:#000000;stroke-width:0.2614;stroke-miterlimit:10;}
        .st4{stroke:#000000;stroke-width:0.4084;stroke-miterlimit:10;}
    </style>
    <circle cx="297.64" cy="420.95" r="420.95" fill="white"/>
    <g id="Calque_2">
    </g>
    <g id="Calque_3">
        <g>
            <g>
                <path class="st0" d="M196.77,483.13c10.77-6.73,21.98-18.88,29.02-31.34c13.27-25.5,12.77-21.35,24.04-51.4
                    c11.31-27.04,23.4-44.81,40.62-61.85c4.97-4.48,19.07-13.93,21.55-14.59c2.49-0.66,5.6,3.03,5.6,3.03
                    c-14.86,13.06-62.88,161.15-12.06,158.81c25.42-0.45,35.09-33.52,35.09-33.52l3.37-0.67c0,0-10.35,36.89-33.96,38.01
                    c-23.62,1.12-27.22-15.74-27.22-15.74c-15.2-33.04-5.06-109,26.99-142.38l-0.08-2.72c0,0-41.41,33.79-49.26,74.81
                    c-32.13,59.72-29.33,63.66-61.43,82.23C197.99,486.36,196.84,483.53,196.77,483.13z"/>
                <path class="st1" d="M249.83,400.4c-19.79-6.37-51.94-12.3-77.32-2.44c-47.36,18.29-50.69,108.25,24.9,86.69"/>
                <path class="st1" d="M262.08,404.06c13.96,2.54,16.22,2.72,16.22,2.72L262.08,404.06z"/>
                <line class="st1" x1="260.48" y1="403.59" x2="262.08" y2="404.06"/>
                <path class="st1" d="M287.63,406.84c67.28-2.84,93.79-35.22,90.58-82.96c-7-24.74-34.2-20.65-34.2-20.65s-23.42,13.03-28.8,20.65
                    "/>
                <path class="st0" d="M315.06,506.95c23.89,0.77,87.77-158.48,106.6-178.52h2.53v3.12c-18.23,30.29-61.26,153.19-100.62,175.4
                    C306.06,511.73,315.06,506.95,315.06,506.95z"/>
                <path class="st1" d="M376.34,413.81l-63.59,9.75c-63.1,5.92-66.67,109.8,9,82.43"/>
                <path class="st1" d="M385.99,412.81c0,0,68.89-1.47,68.69-53.36"/>
                <path class="st1" d="M423.21,328.43c26.03-44.28,55.25-7.45-8.4-1.21c-12.91-1.51-108.83,15.09-76.92,58.9"/>
                <path class="st1" d="M309.83,331.5l8.24-10.77c-2.34,1.72-6.22,3.8-8.6,5.39v1.34"/>
            </g>

            <!-- original -->
            
            <!-- <rect x="195.03" y="482.73" transform="matrix(0.8309 -0.5564 0.5564 0.8309 -235.3202 191.4521)" class="st2" width="4.59" height="0.31"/>
            
            <rect x="194.14" y="486.11" transform="matrix(0.9854 -0.1703 0.1703 0.9854 -79.9467 40.5598)" class="st2" width="4.59" height="0.31"/>
            
            <rect x="314.3" y="320.87" transform="matrix(0.4469 -0.8946 0.8946 0.4469 -112.1018 463.4813)" class="st3" width="8.94" height="3.06"/>
            
            <rect x="419.88" y="328.8" transform="matrix(0.5 -0.866 0.866 0.5 -72.7941 532.8546)" class="st4" width="10.38" height="1.33"/> -->

            <!-- Modified -->

            <!-- <rect x="195.03" y="482.73" transform="matrix(0.8309 -0.5564 0.5564 0.8309 -235.3202 191.4521)" class="st2" width="6.885" height="0.46"/>
            
            <rect x="194.14" y="486.11" transform="matrix(0.9854 -0.1703 0.1703 0.9854 -79.9467 40.5598)" class="st2" width="6.885" height="0.46"/>
            
            <rect x="314.3" y="320.87" transform="matrix(0.4469 -0.8946 0.8946 0.4469 -112.1018 463.4813)" class="st3" width="13.41" height="4.59"/>
            
            <rect x="419.88" y="328.8" transform="matrix(0.5 -0.866 0.866 0.5 -72.7941 532.8546)" class="st4" width="15.57" height="1.99"/> -->

            <rect x="195.03" y="482.73" transform="matrix(0.8309 -0.5564 0.5564 0.8309 -235.3202 191.4521)" class="st2" width="10" height="2"/>

            <rect x="194.14" y="486.11" transform="matrix(0.9854 -0.1703 0.1703 0.9854 -79.9467 40.5598)" class="st2" width="10" height="2"/>

            <rect x="314.3" y="320.87" transform="matrix(0.4469 -0.8946 0.8946 0.4469 -112.1018 463.4813)" class="st3" width="15" height="5"/>

            <rect x="419.88" y="328.8" transform="matrix(0.5 -0.866 0.866 0.5 -72.7941 532.8546)" class="st4" width="15" height="2"/>


        </g>
    </g>
</svg>
